<mxfile host="app.diagrams.net" modified="2023-12-12T19:20:47.396Z" agent="Mozilla/5.0 (Macintosh; Intel Mac OS X 10_15_7) AppleWebKit/605.1.15 (KHTML, like Gecko) Version/17.1.2 Safari/605.1.15" etag="Fh3TC-zUT0RjScjuabDZ" version="22.1.8" type="github">
  <diagram name="Page-1" id="OnQUaINcqfUY91vmZkuj">
    <mxGraphModel dx="684" dy="721" grid="1" gridSize="10" guides="1" tooltips="1" connect="1" arrows="1" fold="1" page="1" pageScale="1" pageWidth="827" pageHeight="1169" math="0" shadow="0">
      <root>
        <mxCell id="0" />
        <mxCell id="1" parent="0" />
        <mxCell id="K2TaO5TzR4r3G8ozo6-y-20" value="" style="edgeStyle=orthogonalEdgeStyle;rounded=0;orthogonalLoop=1;jettySize=auto;html=1;entryX=0.5;entryY=0;entryDx=0;entryDy=0;" edge="1" parent="1" source="K2TaO5TzR4r3G8ozo6-y-5" target="K2TaO5TzR4r3G8ozo6-y-19">
          <mxGeometry relative="1" as="geometry" />
        </mxCell>
        <mxCell id="K2TaO5TzR4r3G8ozo6-y-5" value="Void loop" style="rounded=0;whiteSpace=wrap;html=1;" vertex="1" parent="1">
          <mxGeometry x="70" y="120" width="120" height="60" as="geometry" />
        </mxCell>
        <mxCell id="K2TaO5TzR4r3G8ozo6-y-8" value="" style="edgeStyle=orthogonalEdgeStyle;rounded=0;orthogonalLoop=1;jettySize=auto;html=1;" edge="1" parent="1" source="K2TaO5TzR4r3G8ozo6-y-7" target="K2TaO5TzR4r3G8ozo6-y-5">
          <mxGeometry relative="1" as="geometry" />
        </mxCell>
        <mxCell id="K2TaO5TzR4r3G8ozo6-y-7" value="Void setup" style="rounded=0;whiteSpace=wrap;html=1;" vertex="1" parent="1">
          <mxGeometry x="70" y="20" width="120" height="60" as="geometry" />
        </mxCell>
        <mxCell id="K2TaO5TzR4r3G8ozo6-y-9" value="patrol()" style="rounded=0;whiteSpace=wrap;html=1;" vertex="1" parent="1">
          <mxGeometry x="70" y="260" width="120" height="60" as="geometry" />
        </mxCell>
        <mxCell id="K2TaO5TzR4r3G8ozo6-y-12" value="removeTree()" style="rounded=0;whiteSpace=wrap;html=1;" vertex="1" parent="1">
          <mxGeometry x="70" y="340" width="120" height="60" as="geometry" />
        </mxCell>
        <mxCell id="K2TaO5TzR4r3G8ozo6-y-17" value="removeTree()" style="rounded=0;whiteSpace=wrap;html=1;" vertex="1" parent="1">
          <mxGeometry x="70" y="420" width="120" height="60" as="geometry" />
        </mxCell>
        <mxCell id="K2TaO5TzR4r3G8ozo6-y-39" style="edgeStyle=orthogonalEdgeStyle;rounded=0;orthogonalLoop=1;jettySize=auto;html=1;" edge="1" parent="1">
          <mxGeometry relative="1" as="geometry">
            <mxPoint x="260" y="320" as="targetPoint" />
            <mxPoint x="230" y="320" as="sourcePoint" />
          </mxGeometry>
        </mxCell>
        <mxCell id="K2TaO5TzR4r3G8ozo6-y-19" value="Three Main Functions" style="swimlane;whiteSpace=wrap;html=1;" vertex="1" parent="1">
          <mxGeometry x="30" y="220" width="200" height="280" as="geometry">
            <mxRectangle x="170" y="260" width="160" height="30" as="alternateBounds" />
          </mxGeometry>
        </mxCell>
        <mxCell id="K2TaO5TzR4r3G8ozo6-y-38" style="edgeStyle=orthogonalEdgeStyle;rounded=0;orthogonalLoop=1;jettySize=auto;html=1;" edge="1" parent="1">
          <mxGeometry relative="1" as="geometry">
            <mxPoint x="460" y="320" as="sourcePoint" />
            <mxPoint x="500" y="320" as="targetPoint" />
          </mxGeometry>
        </mxCell>
        <mxCell id="K2TaO5TzR4r3G8ozo6-y-21" value="struct kinematics()" style="swimlane;whiteSpace=wrap;html=1;" vertex="1" parent="1">
          <mxGeometry x="260" y="220" width="200" height="450" as="geometry" />
        </mxCell>
        <mxCell id="K2TaO5TzR4r3G8ozo6-y-26" value="forwardKinematics()" style="rounded=0;whiteSpace=wrap;html=1;" vertex="1" parent="K2TaO5TzR4r3G8ozo6-y-21">
          <mxGeometry x="40" y="40" width="120" height="60" as="geometry" />
        </mxCell>
        <mxCell id="K2TaO5TzR4r3G8ozo6-y-27" value="backward kinematics()" style="rounded=0;whiteSpace=wrap;html=1;" vertex="1" parent="K2TaO5TzR4r3G8ozo6-y-21">
          <mxGeometry x="40" y="120" width="120" height="60" as="geometry" />
        </mxCell>
        <mxCell id="K2TaO5TzR4r3G8ozo6-y-28" value="turnByAngle()" style="rounded=0;whiteSpace=wrap;html=1;" vertex="1" parent="K2TaO5TzR4r3G8ozo6-y-21">
          <mxGeometry x="40" y="200" width="120" height="60" as="geometry" />
        </mxCell>
        <mxCell id="K2TaO5TzR4r3G8ozo6-y-29" value="findTargetAngle()" style="rounded=0;whiteSpace=wrap;html=1;" vertex="1" parent="K2TaO5TzR4r3G8ozo6-y-21">
          <mxGeometry x="40" y="280" width="120" height="60" as="geometry" />
        </mxCell>
        <mxCell id="K2TaO5TzR4r3G8ozo6-y-30" value="driveStraight()" style="rounded=0;whiteSpace=wrap;html=1;" vertex="1" parent="K2TaO5TzR4r3G8ozo6-y-21">
          <mxGeometry x="40" y="360" width="120" height="60" as="geometry" />
        </mxCell>
        <mxCell id="K2TaO5TzR4r3G8ozo6-y-32" value="struct encoderData" style="swimlane;whiteSpace=wrap;html=1;" vertex="1" parent="1">
          <mxGeometry x="500" y="220" width="200" height="210" as="geometry" />
        </mxCell>
        <mxCell id="K2TaO5TzR4r3G8ozo6-y-33" value="getDistance()" style="rounded=0;whiteSpace=wrap;html=1;" vertex="1" parent="K2TaO5TzR4r3G8ozo6-y-32">
          <mxGeometry x="40" y="40" width="120" height="60" as="geometry" />
        </mxCell>
        <mxCell id="K2TaO5TzR4r3G8ozo6-y-34" value="getVelocity" style="rounded=0;whiteSpace=wrap;html=1;" vertex="1" parent="K2TaO5TzR4r3G8ozo6-y-32">
          <mxGeometry x="40" y="120" width="120" height="60" as="geometry" />
        </mxCell>
      </root>
    </mxGraphModel>
  </diagram>
</mxfile>
